<svg width="1600" height="375" viewBox="0 0 1600 375" fill="none" xmlns="http://www.w3.org/2000/svg">
<path d="M1133.54 156.532H1071.4V137.086H1133.54V156.532ZM1161.65 184.856H1043.49V165.41H1161.65V184.856ZM1228.02 210.432H1202.66V256.51H1178.14V138.143H1202.66V188.66H1228.02V210.432ZM1155.52 221.634C1155.52 230.512 1150.73 237.98 1141.15 244.04C1131.71 249.958 1118.81 252.917 1102.47 252.917C1087.11 252.917 1074.42 249.958 1064.42 244.04C1054.42 237.98 1049.41 230.512 1049.41 221.634C1049.41 212.757 1054.34 205.5 1064.21 199.863C1074.21 194.086 1087.11 191.197 1102.89 191.197C1119.24 191.197 1132.06 194.086 1141.36 199.863C1150.8 205.5 1155.52 212.757 1155.52 221.634ZM1202.66 324.149H1177.5V286.736H1064.63V265.599H1202.66V324.149ZM1129.52 221.423C1129.52 217.618 1127.13 214.659 1122.34 212.545C1117.69 210.432 1111.2 209.375 1102.89 209.375C1094.72 209.375 1088.09 210.502 1083.02 212.757C1078.09 214.87 1075.62 217.83 1075.62 221.634C1075.62 225.58 1078.09 228.75 1083.02 231.146C1088.09 233.401 1094.72 234.528 1102.89 234.528C1111.2 234.528 1117.69 233.33 1122.34 230.935C1127.13 228.539 1129.52 225.368 1129.52 221.423Z" fill="#252525"/>
<path d="M1354.19 277.436C1352.5 277.577 1344.89 278.493 1331.36 280.184C1317.98 281.875 1303.32 282.791 1287.4 282.932L1244.7 283.143V158.223H1336.65V179.36H1269.22V261.161H1298.39C1307.83 260.879 1319.03 260.104 1332 258.836C1345.1 257.426 1352.5 256.581 1354.19 256.299V277.436ZM1392.45 211.488H1420.14V233.682H1392.45V324.149H1367.93V138.143H1392.45V211.488Z" fill="#252525"/>
<path d="M1600 249.324H1575.48V138.143H1600V249.324ZM1598.73 324.36H1574.42V279.55H1459.86V257.779H1598.73V324.36ZM1554.98 223.959L1539.97 242.137C1536.03 240.587 1531.38 238.262 1526.02 235.162C1520.67 232.062 1515.66 228.539 1511.01 224.593C1507.21 221.352 1503.76 218.323 1500.66 215.505C1497.7 212.545 1494.81 208.952 1491.99 204.725C1489.59 209.093 1486.71 213.25 1483.32 217.195C1480.08 221.141 1476.28 225.016 1471.91 228.821C1466.7 233.33 1462.12 236.923 1458.17 239.601C1454.37 242.278 1450.28 244.815 1445.91 247.21L1427.94 230.3C1433.3 227.482 1439.22 223.818 1445.7 219.309C1452.18 214.659 1458.03 209.375 1463.24 203.456C1469.02 196.974 1473.11 190.281 1475.5 183.376C1477.9 176.33 1479.1 168.721 1479.1 160.548V143.216H1505.1V160.548C1505.1 168.721 1506.43 176.19 1509.11 182.953C1511.79 189.717 1515.59 195.777 1520.53 201.131C1526.16 206.768 1531.87 211.488 1537.65 215.293C1543.56 218.957 1549.34 221.846 1554.98 223.959Z" fill="#252525"/>
<path d="M429.527 324.36C419.206 324.36 408.983 323.17 398.86 320.788C388.936 318.406 379.408 314.932 370.278 310.367C361.147 305.603 353.109 299.351 346.162 291.61C339.214 283.869 335.443 274.639 334.848 263.921V246.95C334.848 241.392 336.833 236.827 340.802 233.254C344.971 229.483 349.834 227.597 355.391 227.597C367.301 228.589 373.752 235.04 374.744 246.95V254.691C375.141 260.844 377.424 266.005 381.592 270.173C385.959 274.143 390.722 277.319 395.883 279.7C401.242 282.082 406.701 283.869 412.258 285.06C418.015 286.251 423.771 286.846 429.527 286.846C435.283 286.846 440.94 286.251 446.498 285.06C452.254 283.869 457.712 282.082 462.873 279.7C468.232 277.319 472.996 274.143 477.164 270.173C481.531 266.005 483.913 260.844 484.31 254.691V156.439C484.31 150.881 486.295 146.316 490.265 142.743C494.433 138.972 499.296 137.086 504.854 137.086C516.763 138.078 523.313 144.529 524.504 156.439V263.921C523.909 274.639 520.038 283.869 512.892 291.61C505.945 299.351 497.906 305.603 488.776 310.367C479.645 314.932 470.019 318.406 459.896 320.788C449.971 323.17 439.848 324.36 429.527 324.36Z" fill="#252525"/>
<path d="M624.543 317.513C607.076 316.917 593.876 312.848 584.944 305.306C576.012 297.564 569.561 288.93 565.591 279.403C561.621 269.677 559.637 259.851 559.637 249.927C559.637 239.606 561.522 229.681 565.294 220.154C569.263 210.428 575.714 201.793 584.646 194.251C593.777 186.51 605.289 182.54 619.183 182.341H715.649C729.543 182.54 740.956 186.51 749.888 194.251C759.019 201.793 765.47 210.428 769.241 220.154C773.211 229.681 775.196 239.606 775.196 249.927C775.196 259.851 773.211 269.677 769.241 279.403C765.271 288.93 758.82 297.564 749.888 305.306C740.956 312.848 727.757 316.917 710.29 317.513H624.543ZM617.992 222.238C614.221 222.238 610.946 223.826 608.167 227.002C605.388 229.979 603.304 233.552 601.915 237.72C600.724 241.69 600.128 245.66 600.128 249.629C600.128 253.798 600.724 257.966 601.915 262.134C603.304 266.104 605.388 269.677 608.167 272.853C610.946 275.83 614.221 277.418 617.992 277.616H716.84C720.611 277.418 723.886 275.83 726.665 272.853C729.444 269.677 731.429 266.104 732.62 262.134C734.009 257.966 734.704 253.798 734.704 249.629C734.704 245.66 734.009 241.69 732.62 237.72C731.429 233.552 729.444 229.979 726.665 227.002C723.886 223.826 720.611 222.238 716.84 222.238H617.992Z" fill="#252525"/>
<path d="M849.629 156.439V269.875C849.629 274.837 852.21 277.418 857.37 277.616H961.577C965.348 277.418 968.623 275.83 971.402 272.853C974.181 269.677 976.166 266.104 977.357 262.134C978.746 257.966 979.441 253.798 979.441 249.629C979.441 245.66 978.746 241.69 977.357 237.72C976.166 233.552 974.181 229.979 971.402 227.002C968.623 223.826 965.348 222.238 961.577 222.238H885.357C879.8 222.238 875.036 220.352 871.066 216.581C867.295 212.611 865.409 207.847 865.409 202.29C865.409 196.732 867.394 192.067 871.364 188.296C875.135 184.326 879.8 182.341 885.357 182.341H960.386C974.28 182.54 985.694 186.51 994.626 194.251C1003.76 201.793 1010.21 210.428 1013.98 220.154C1017.95 229.681 1019.93 239.606 1019.93 249.927C1019.93 259.851 1017.95 269.677 1013.98 279.403C1010.01 288.93 1003.56 297.564 994.626 305.306C985.694 312.848 972.494 316.917 955.027 317.513H829.979C824.421 317.513 819.657 315.726 815.688 312.153C811.718 308.382 809.634 303.718 809.435 298.16V156.439C809.435 150.881 811.42 146.316 815.39 142.743C819.558 138.972 824.421 137.086 829.979 137.086C841.888 138.078 848.438 144.529 849.629 156.439Z" fill="#252525"/>
<path d="M27.1885 146.273C10.3229 168.222 0.152384 195.694 0.0016978 224.464C-0.348922 291.408 53.651 345.96 120.614 346.311C187.577 346.661 242.145 292.677 242.496 225.734C242.644 197.461 233.104 170.342 216.988 148.417L188.081 176.004C197.431 190.22 203.037 207.336 202.942 225.526C202.706 270.631 165.939 307.005 120.821 306.769C75.703 306.533 39.3191 269.776 39.5553 224.671C39.6528 206.066 45.7032 188.647 55.5903 174.346L27.1885 146.273Z" fill="#252525"/>
<path d="M220.053 279.15L190.947 311.308L231.335 361.667C241.86 374.791 260.473 379.387 273.158 368.336C275.352 366.425 277.492 364.366 279.474 362.173C282.236 359.116 284.635 355.794 286.697 352.466C294.992 339.082 288.245 322.647 274.969 314.178L220.053 279.15Z" fill="#252525"/>
<path d="M166.239 48.0484C166.239 73.3469 145.893 93.8553 120.796 93.8553C95.6981 93.8553 75.3525 73.3469 75.3525 48.0484C75.3525 22.75 95.6981 0 120.796 0C145.893 0 166.239 22.75 166.239 48.0484Z" fill="#104085"/>
<path d="M88.8263 106.624L110.56 139.253L117.098 115.739L114.526 110.754C113.628 109.013 110.82 106.561 112 105C112.862 103.859 116.715 103.218 121.837 103.218C126.688 103.218 130.117 103.947 131 105C132.339 106.596 129.744 109.062 128.731 110.885L126.035 115.739L133.114 139.253L151.611 105.751C157.827 107.28 163.932 109.29 169.87 111.769C185.081 118.12 198.902 127.429 210.544 139.164L152.921 197.248C148.846 193.141 144.009 189.882 138.685 187.66C133.361 185.437 127.655 184.293 121.893 184.293C116.13 184.293 110.425 185.437 105.101 187.66C99.777 189.882 94.9397 193.141 90.8651 197.248L33.2422 139.164C44.884 127.429 58.7048 118.12 73.9155 111.769C78.784 109.736 83.7645 108.019 88.8263 106.624Z" fill="#104085"/>
</svg>
