<svg width="3117" height="885" viewBox="0 0 3117 885" fill="none" xmlns="http://www.w3.org/2000/svg">
<path d="M303.635 11.5H412.135V172H459.135V192H412.135V381.5H303.635V11.5ZM0.134768 43V23H257.135V371.5H148.635V43H0.134768ZM926.9 307C926.9 318.667 924.067 328.833 918.4 337.5C912.734 346.167 902.067 353.333 886.4 359C871.067 364.667 849.9 369 822.9 372C795.9 375 761.067 376.5 718.4 376.5C675.734 376.5 640.9 375 613.9 372C586.9 369 565.567 364.667 549.9 359C534.567 353.333 524.067 346.167 518.4 337.5C512.734 328.833 509.9 318.667 509.9 307C509.9 295.667 512.734 285.667 518.4 277C524.067 268 534.567 260.667 549.9 255C565.567 249.333 586.9 245 613.9 242C640.9 239 675.734 237.5 718.4 237.5C761.067 237.5 795.9 239 822.9 242C849.9 245 871.067 249.333 886.4 255C902.067 260.667 912.734 268 918.4 277C924.067 285.667 926.9 295.667 926.9 307ZM777.4 23V43H695.4L782.4 211.5H669.4L597.4 72.5L525.4 211.5H499.9L586.9 43H504.9V23H777.4ZM813.4 11.5H921.9V104.5H968.9V124.5H921.9V216.5H813.4V11.5ZM617.4 307C617.4 314 619.067 320.667 622.4 327C625.734 333 631.234 338.167 638.9 342.5C646.9 346.833 657.4 350.167 670.4 352.5C683.4 355.167 699.4 356.5 718.4 356.5C737.4 356.5 753.4 355.167 766.4 352.5C779.4 350.167 789.734 346.833 797.4 342.5C805.4 338.167 811.067 333 814.4 327C817.734 320.667 819.4 314 819.4 307C819.4 300 817.734 293.5 814.4 287.5C811.067 281.167 805.4 275.833 797.4 271.5C789.734 267.167 779.4 263.833 766.4 261.5C753.4 258.833 737.4 257.5 718.4 257.5C699.4 257.5 683.4 258.833 670.4 261.5C657.4 263.833 646.9 267.167 638.9 271.5C631.234 275.833 625.734 281.167 622.4 287.5C619.067 293.5 617.4 300 617.4 307ZM1288.3 221.5C1262.3 221.5 1240.3 220 1222.3 217C1204.64 214 1190.47 209.667 1179.8 204C1169.14 198.333 1161.47 191.5 1156.8 183.5C1152.14 175.167 1149.8 165.667 1149.8 155C1149.8 144.333 1152.14 135 1156.8 127C1161.47 118.667 1169.14 111.667 1179.8 106C1190.47 100.333 1204.64 96 1222.3 93C1240.3 90 1262.3 88.5 1288.3 88.5C1318.3 88.5 1342.64 90.5 1361.3 94.5C1380.3 98.1667 1394.97 103.667 1405.3 111H1473.3V11.5H1581.8V231.5H1473.3V191H1414.3C1405.3 201 1390.8 208.667 1370.8 214C1350.8 219 1323.3 221.5 1288.3 221.5ZM1473.3 273H1159.8V253H1581.8V371.5H1473.3V273ZM1436.8 44.5V64.5H1139.8V44.5H1436.8ZM1288.3 108.5C1278.64 108.5 1270.97 112.333 1265.3 120C1259.97 127.667 1257.3 139.333 1257.3 155C1257.3 170.667 1259.97 182.333 1265.3 190C1270.97 197.667 1278.64 201.5 1288.3 201.5C1297.97 201.5 1305.47 197.667 1310.8 190C1316.47 182.333 1319.3 170.667 1319.3 155C1319.3 139.333 1316.47 127.667 1310.8 120C1305.47 112.333 1297.97 108.5 1288.3 108.5ZM1391.8 0.49999V20.5H1184.8V0.49999H1391.8ZM1426.8 155C1426.8 158 1426.64 160.833 1426.3 163.5C1425.97 165.833 1425.47 168.333 1424.8 171H1473.3V131H1422.3C1425.3 138.667 1426.8 146.667 1426.8 155ZM1983.07 11.5H2091.57V276.5H1983.07V11.5ZM1855.07 18L1942.07 211.5H1829.07L1757.07 51.5L1685.07 211.5H1659.57L1737.57 38H1716.57V18H1855.07ZM2096.57 371.5C2060.9 380.167 2025.24 384.5 1989.57 384.5C1954.24 384.5 1918.74 380.167 1883.07 371.5C1847.4 362.833 1811.74 358.5 1776.07 358.5C1740.74 358.5 1705.24 362.833 1669.57 371.5V238H1778.07V338.5C1795.74 338.833 1813.24 340 1830.57 342C1847.9 344 1865.4 347.167 1883.07 351.5C1918.74 360.167 1954.24 364.5 1989.57 364.5C2025.24 364.5 2060.9 360.167 2096.57 351.5V371.5ZM2446.83 23V43H2364.83L2451.83 211.5H2338.83L2266.83 72.5L2194.83 211.5H2169.33L2256.33 43H2174.33V23H2446.83ZM2492.83 99.5V11.5H2601.33V216.5H2492.83V119.5H2423.33V99.5H2492.83ZM2492.83 263H2179.33V243H2601.33V371.5H2492.83V263ZM2956.1 114C2956.1 181 2908.27 214.5 2812.6 214.5C2716.93 214.5 2669.1 181 2669.1 114C2669.1 47 2716.93 13.5 2812.6 13.5C2908.27 13.5 2956.1 47 2956.1 114ZM3002.6 11.5H3111.1V276.5H3002.6V11.5ZM3116.1 371.5C3080.43 380.167 3045.27 384.5 3010.6 384.5C2975.93 384.5 2940.77 380.167 2905.1 371.5C2869.43 362.833 2834.27 358.5 2799.6 358.5C2764.93 358.5 2729.77 362.833 2694.1 371.5V238H2802.6V338.5C2819.6 338.833 2836.6 340 2853.6 342C2870.6 344 2887.77 347.167 2905.1 351.5C2940.77 360.167 2975.93 364.5 3010.6 364.5C3045.27 364.5 3080.43 360.167 3116.1 351.5V371.5ZM2776.6 114C2776.6 130.333 2777.6 143.667 2779.6 154C2781.6 164.333 2784.1 172.5 2787.1 178.5C2790.43 184.5 2794.27 188.667 2798.6 191C2802.93 193.333 2807.6 194.5 2812.6 194.5C2817.6 194.5 2822.27 193.333 2826.6 191C2830.93 188.667 2834.6 184.5 2837.6 178.5C2840.93 172.5 2843.6 164.333 2845.6 154C2847.6 143.667 2848.6 130.333 2848.6 114C2848.6 97.6666 2847.6 84.3333 2845.6 74C2843.6 63.6667 2840.93 55.5 2837.6 49.5C2834.6 43.5 2830.93 39.3333 2826.6 37C2822.27 34.6667 2817.6 33.5 2812.6 33.5C2807.6 33.5 2802.93 34.6667 2798.6 37C2794.27 39.3333 2790.43 43.5 2787.1 49.5C2784.1 55.5 2781.6 63.6667 2779.6 74C2777.6 84.3333 2776.6 97.6666 2776.6 114ZM1148.35 511.5H1256.85V871.5H1148.35V511.5ZM1114.85 555V575H1030.35L1117.35 705H1004.35L932.352 597.5L860.352 705H834.852L921.852 575H837.352V555H1114.85ZM916.352 758.5H812.352V738.5H1129.35V758.5H1024.85V871.5H916.352V758.5ZM1059.85 500.5V520.5H892.352V500.5H1059.85ZM1658.12 612H1611.12C1608.45 636.667 1595.78 655.833 1573.12 669.5C1550.45 682.833 1515.45 689.5 1468.12 689.5C1442.78 689.5 1421.12 687.5 1403.12 683.5C1385.12 679.5 1370.28 673.833 1358.62 666.5C1346.95 658.833 1338.28 649.667 1332.62 639C1327.28 628 1324.62 615.5 1324.62 601.5C1324.62 587.5 1327.28 575.167 1332.62 564.5C1338.28 553.5 1346.95 544.333 1358.62 537C1370.28 529.333 1385.12 523.5 1403.12 519.5C1421.12 515.5 1442.78 513.5 1468.12 513.5C1515.78 513.5 1550.78 520.333 1573.12 534C1595.78 547.667 1608.45 567 1611.12 592H1658.12V511.5H1766.62V691.5H1658.12V612ZM1458.12 771H1658.12V718H1766.62V871.5C1730.95 880.167 1696.12 884.5 1662.12 884.5C1628.45 884.5 1593.78 880.167 1558.12 871.5C1522.45 862.833 1487.62 858.5 1453.62 858.5C1419.95 858.5 1385.28 862.833 1349.62 871.5V718H1458.12V771ZM1558.12 851.5C1575.12 855.5 1591.78 858.5 1608.12 860.5C1624.78 862.833 1641.45 864.167 1658.12 864.5V791H1458.12V838.5C1474.78 838.833 1491.28 840 1507.62 842C1524.28 844 1541.12 847.167 1558.12 851.5ZM1504.12 601.5C1504.12 576.5 1500.62 559 1493.62 549C1486.95 538.667 1478.45 533.5 1468.12 533.5C1457.78 533.5 1449.12 538.667 1442.12 549C1435.45 559 1432.12 576.5 1432.12 601.5C1432.12 626.5 1435.45 644.167 1442.12 654.5C1449.12 664.5 1457.78 669.5 1468.12 669.5C1478.45 669.5 1486.95 664.5 1493.62 654.5C1500.62 644.167 1504.12 626.5 1504.12 601.5ZM2009.88 733V692.5H1832.88V672.5H2294.88V692.5H2118.38V733H2254.88V808.5H1981.38V839C2007.72 840 2036.05 844.167 2066.38 851.5C2084.05 855.833 2100.72 859 2116.38 861C2132.38 863.333 2147.88 864.5 2162.88 864.5C2178.22 864.5 2193.72 863.333 2209.38 861C2225.38 859 2242.22 855.833 2259.88 851.5V871.5C2242.22 875.833 2225.38 879 2209.38 881C2193.72 883.333 2178.22 884.5 2162.88 884.5C2147.88 884.5 2132.38 883.333 2116.38 881C2100.72 879 2084.05 875.833 2066.38 871.5C2048.72 867.167 2031.88 863.833 2015.88 861.5C2000.22 859.5 1984.72 858.5 1969.38 858.5C1954.38 858.5 1938.88 859.5 1922.88 861.5C1907.22 863.833 1890.55 867.167 1872.88 871.5V788.5H2146.38V753H1872.88V733H2009.88ZM2254.88 523V543H1981.38V575.5H2254.88V595.5H1981.38V628H2259.88V648H1872.88V543H1847.88V523H2254.88Z" fill="white"/>
</svg>
